<svg xmlns="http://www.w3.org/2000/svg" width="64.08" height="64.1" viewBox="0 0 64.08 64.1">
  <g id="hand" transform="translate(-0.501)">
    <path id="Path_25" data-name="Path 25" d="M220.862,332.331a1.252,1.252,0,1,0-1.771,0A1.254,1.254,0,0,0,220.862,332.331Zm0,0" transform="translate(-190.903 -288.855)" fill="#e6a533"/>
    <path id="Path_26" data-name="Path 26" d="M188.449,13.768A13.768,13.768,0,1,0,202.217,0,13.784,13.784,0,0,0,188.449,13.768Zm25.032,0A11.265,11.265,0,1,1,202.217,2.5,11.277,11.277,0,0,1,213.481,13.768Zm0,0" transform="translate(-164.418 0)" fill="#e6a533"/>
    <path id="Path_27" data-name="Path 27" d="M14.918,249.467a1.251,1.251,0,0,0,1.766.01l6.068-5.978a3.782,3.782,0,0,0,.891-3.884l1.305-1.259a3.733,3.733,0,0,1,2.606-1.053H44.193a11.206,11.206,0,0,0,7.857-3.192c.087-.085-.661.8,11.351-13.56a5.007,5.007,0,0,0-7.618-6.5L48.4,221.645a5.03,5.03,0,0,0-3.891-1.863H30.549a16.147,16.147,0,0,0-6.268-1.251c-6.027,0-11.29,2.784-14.114,8a3.739,3.739,0,0,0-3.348,1.037L.866,233.542a1.252,1.252,0,0,0,0,1.765Zm9.364-28.435a13.663,13.663,0,0,1,5.51,1.147,1.249,1.249,0,0,0,.5.105H44.506a2.5,2.5,0,1,1,0,5.006H34.295a1.251,1.251,0,0,0,0,2.5H44.506a5,5,0,0,0,4.962-5.661c7.144-7.344,8.152-8.376,8.195-8.427a2.5,2.5,0,1,1,3.822,3.235L50.26,232.361a8.715,8.715,0,0,1-6.067,2.44H27.555a6.223,6.223,0,0,0-4.345,1.755l-1.064,1.027-9.805-9.8c2.292-4.3,6.592-6.744,11.941-6.744Zm-15.69,8.306a1.249,1.249,0,0,1,1.55-.176c.217.132-.405-.434,10.841,10.8a1.254,1.254,0,0,1,.007,1.764l-5.173,5.1-12.3-12.392Zm0,0" transform="translate(0 -185.737)" fill="#e6a533"/>
    <path id="Path_28" data-name="Path 28" d="M268.37,41.24v1.467A3.755,3.755,0,0,0,269.622,50a1.251,1.251,0,1,1,0,2.5A2.264,2.264,0,0,1,268,51.558a1.252,1.252,0,0,0-1.916,1.611,5.191,5.191,0,0,0,2.29,1.63v1.461a1.251,1.251,0,1,0,2.5,0V54.793a3.755,3.755,0,0,0-1.251-7.295,1.252,1.252,0,0,1,0-2.5,2.009,2.009,0,0,1,1.354.654,1.252,1.252,0,0,0,1.741-1.8,4.836,4.836,0,0,0-1.843-1.152V41.24a1.251,1.251,0,1,0-2.5,0Zm0,0" transform="translate(-232.073 -34.982)" fill="#e6a533"/>
  </g>
</svg>
