<svg xmlns="http://www.w3.org/2000/svg" width="70.102" height="56.377" viewBox="0 0 70.102 56.377">
  <g id="online-video" transform="translate(0 -47.969)">
    <g id="Group_28" data-name="Group 28" transform="translate(0 47.969)">
      <path id="Path_3931" data-name="Path 3931" d="M66.522,88.972H3.58A3.584,3.584,0,0,1,0,85.393V51.548a3.584,3.584,0,0,1,3.58-3.579H66.522a3.584,3.584,0,0,1,3.58,3.579V85.393A3.584,3.584,0,0,1,66.522,88.972ZM3.58,50.86a.69.69,0,0,0-.689.688V85.393a.69.69,0,0,0,.689.688H66.522a.689.689,0,0,0,.689-.688V51.548a.689.689,0,0,0-.689-.688Z" transform="translate(0 -47.969)" fill="#e6a533"/>
    </g>
    <g id="Group_29" data-name="Group 29" transform="translate(26.784 57.324)">
      <path id="Path_3932" data-name="Path 3932" d="M188,135.489a1.471,1.471,0,0,1-.783-1.284V114.8a1.446,1.446,0,0,1,2.284-1.178l13.642,9.7a1.446,1.446,0,0,1,0,2.356l-13.642,9.7A1.324,1.324,0,0,1,188,135.489Zm2.108-17.885v13.8l9.7-6.9Z" transform="translate(-187.214 -113.357)" fill="#e6a533"/>
    </g>
    <path id="Path_3933" data-name="Path 3933" d="M68.657,366.31H41.026a5.722,5.722,0,0,0-11.073,0H1.446a1.446,1.446,0,1,0,0,2.891H29.953a5.722,5.722,0,0,0,11.073,0h27.63a1.446,1.446,0,0,0,0-2.891ZM35.49,370.587a2.831,2.831,0,1,1,2.831-2.831A2.835,2.835,0,0,1,35.49,370.587Z" transform="translate(0 -269.132)" fill="#e6a533"/>
  </g>
</svg>
