<svg xmlns="http://www.w3.org/2000/svg" width="58.277" height="58.277" viewBox="0 0 58.277 58.277">
  <g id="music-note" transform="translate(-0.001 0)">
    <g id="Group_25" data-name="Group 25" transform="translate(20.489 13.887)">
      <g id="Group_24" data-name="Group 24">
        <path id="Path_3929" data-name="Path 3929" d="M217.111,122.348a1.708,1.708,0,0,0-1.495-.281l-24.13,6.829a1.707,1.707,0,0,0-1.242,1.643v23.114a6.827,6.827,0,1,0,3.415,5.911v-20.9l20.716-5.863v14.027a6.827,6.827,0,1,0,3.415,5.911V123.709A1.707,1.707,0,0,0,217.111,122.348Zm-30.282,40.63a3.415,3.415,0,1,1,3.415-3.415A3.419,3.419,0,0,1,186.829,162.978Zm24.13-6.829a3.415,3.415,0,1,1,3.415-3.415A3.419,3.419,0,0,1,210.96,156.149Zm3.415-26.9-20.716,5.863V131.83l20.716-5.863Z" transform="translate(-180 -122.002)" fill="#e6a533"/>
      </g>
    </g>
    <g id="Group_27" data-name="Group 27" transform="translate(0.001 0)">
      <g id="Group_26" data-name="Group 26" transform="translate(0 0)">
        <path id="Path_3930" data-name="Path 3930" d="M23.824,12.12a34.3,34.3,0,0,1-8.484-8.408L13.373.761a1.707,1.707,0,0,0-3.128.947V28.464a6.827,6.827,0,1,0,3.415,5.911V7.216a40.322,40.322,0,0,0,8.146,7.658,5.122,5.122,0,0,1-3.024,9.257,1.707,1.707,0,1,0,0,3.415A8.537,8.537,0,0,0,23.824,12.12ZM6.83,37.789a3.415,3.415,0,1,1,3.415-3.415A3.419,3.419,0,0,1,6.83,37.789Z" transform="translate(-0.001 0)" fill="#e6a533"/>
      </g>
    </g>
  </g>
</svg>
